<?xml version="1.0" encoding="utf-8"?>
<!DOCTYPE svg PUBLIC "-//W3C//DTD SVG 1.1//EN" "http://www.w3.org/Graphics/SVG/1.1/DTD/svg11.dtd">
<svg version="1.1" xmlns="http://www.w3.org/2000/svg" xmlns:xlink="http://www.w3.org/1999/xlink" x="0px" y="0px"
	 viewBox="0 0 256 256" enable-background="new 0 0 256 256" xml:space="preserve">

<!-- SVG static part -->

	<path fill="#69C5B1" d="M224.8,72.7H140h-23.1H32v126.6c0,2.2,1.7,3.9,3.9,3.9h80.9v0c0,1.3,1.1,2.3,2.3,2.3h18.4
			c1.3,0,2.3-1.1,2.3-2.3v0h80.9c2.2,0,3.9-1.7,3.9-3.9V72.7z"/>
	<path fill="#8BD2C3" d="M227.6,200.1c-34.3-2.2-64.7-2.2-99,0c0-42.6,0-85.1,0-127.7c34.3-2.2,64.7-2.2,99,0
			C227.6,115,227.6,157.6,227.6,200.1z"/>
	<path fill="#8BD2C3" d="M29.2,200.1c34.3-2.2,64.7-2.2,99,0c0-42.6,0-85.1,0-127.7c-34.3-2.2-64.7-2.2-99,0
			C29.2,115,29.2,157.6,29.2,200.1z"/>
	<path fill="#ADDFD4" d="M25.2,198.1c34.1-7,68.9-5,103,2c0-42.6,0-85.1,0-127.7c-34.1-7-68.9-9-103-2
				C25.2,113,25.2,155.6,25.2,198.1z"/>
    <path fill="#ADDFD4" d="M231.6,198.1c-34.1-7-68.9-5-103,2c0-42.6,0-85.1,0-127.7c34.1-7,68.9-9,103-2
			C231.6,113,231.6,155.6,231.6,198.1z"/>
	
<!-- SVG animation -->


<path class="test" fill="#CBEBE4" d="M209.8,190.6c-29.9-6.4-62.6-2.1-92.5,13c0-42.6,0-85.1,0-127.7c29.9-15.1,62.6-19.4,92.5-13
		C209.8,105.5,209.8,148.1,209.8,190.6z" >

<!-- SVG frame animation -->

<animate attributeName = "d" begin = "0s" dur = "2s" repeatCount="indefinite"
  
  from = "M231.6,198.1c-34.1-7-68.9-5-103,2c0-42.6,0-85.1,0-127.7c34.1-7,68.9-9,103-2
			C231.6,113,231.6,155.6,231.6,198.1z"
  to = "M25.2,198.1c34.1-7,68.9-5,103,2c0-42.6,0-85.1,0-127.7c-34.1-7-68.9-9-103-2
				C25.2,113,25.2,155.6,25.2,198.1z"
  values = "M231.6,198.1c-34.1-7-68.9-5-103,2c0-42.6,0-85.1,0-127.7c34.1-7,68.9-9,103-2
			C231.6,113,231.6,155.6,231.6,198.1z;
	M226.3,192.6c-32-6.7-65.8-3.6-97.8,7.5c0-42.6,0-85.1,0-127.7c32-11.1,65.8-14.2,97.8-7.5
			C226.3,107.5,226.3,150.1,226.3,192.6z;
	M194.1,172.1c-21.2,1.7-44.3,11-65.5,28c0-42.6,0-85.1,0-127.7c21.2-17,44.3-26.3,65.5-28
		C194.1,87,194.1,129.6,194.1,172.1z;
	M165,165.3c-11.8,7.1-24.7,18.4-36.4,34c0-42.6,0-85.1,0-127.7c11.8-15.6,24.7-26.9,36.4-34
		C165,80.2,165,122.7,165,165.3z;
	M139.5,165.3c-3.6,10.1-7.5,21.4-11,34c0-42.6,0-85.1,0-127.7c3.6-12.6,7.5-23.9,11-34
		C139.5,80.2,139.5,122.7,139.5,165.3z;
	M130,165.3c-0.5,10.1-1,21.4-1.5,34c0-42.6,0-85.1,0-127.7c0.5-12.6,1-23.9,1.5-34
		C130,80.2,130,122.7,130,165.3z;
	M117.5,165.3c3.6,10.1,7.5,21.4,11,34c0-42.6,0-85.1,0-127.7c-3.6-12.6-7.5-23.9-11-34
		C117.5,80.2,117.5,122.7,117.5,165.3z;
	M92.1,165.3c11.8,7.1,24.7,18.4,36.4,34c0-42.6,0-85.1,0-127.7c-11.8-15.6-24.7-26.9-36.4-34
		C92.1,80.2,92.1,122.7,92.1,165.3z;
	M63,172.1c21.2,1.7,44.3,11,65.5,28c0-42.6,0-85.1,0-127.7c-21.2-17-44.3-26.3-65.5-28
		C63,87,63,129.6,63,172.1z;
	M30.3,192.6c32-6.7,65.8-3.6,97.8,7.5c0-42.6,0-85.1,0-127.7c-32-11.1-65.8-14.2-97.8-7.5
			C30.3,107.5,30.3,150.1,30.3,192.6z;
	M25.2,198.1c34.1-7,68.9-5,103,2c0-42.6,0-85.1,0-127.7c-34.1-7-68.9-9-103-2
			C25.2,113,25.2,155.6,25.2,198.1z"
	keySplines= "
            0.1 0.8 0.2 1; 
            0.1 0.8 0.2 1;
            0.1 0.8 0.2 1;
            0.1 0.8 0.2 1; 
            0.1 0.8 0.2 1;
            0.1 0.8 0.2 1;
            0.1 0.8 0.2 1; 
            0.1 0.8 0.2 1; 
            0.1 0.8 0.2 1;"
    keyTimes="
            0;0.11;0.22;0.33;0.44;0.55;0.66;0.77;0.88;0.99;1;"
/>

<!-- SVG color animation -->

<animate attributeName="fill"
                  from="#CBEBE4"  to="#CBEBE4"
                  values="#CBEBE4;#8BD2C3;#D6EFEA;#CBEBE4"
                  begin="0s" dur="2s"
                  fill="freeze" repeatCount="indefinite"/>
</path>


</svg>
